<svg width="677" height="465" viewBox="0 0 677 465" fill="none" xmlns="http://www.w3.org/2000/svg">
<g filter="url(#filter0_d_1_2)">
<ellipse cx="338.5" cy="228.5" rx="319.5" ry="213.5" fill="url(#paint0_linear_1_2)"/>
<path d="M338.5 449.5C428.005 449.5 509.375 425.271 568.588 385.703C627.749 346.17 665.5 290.736 665.5 228.5C665.5 166.264 627.749 110.83 568.588 71.2968C509.375 31.7294 428.005 7.5 338.5 7.5C248.995 7.5 167.625 31.7294 108.412 71.2968C49.251 110.83 11.5 166.264 11.5 228.5C11.5 290.736 49.251 346.17 108.412 385.703C167.625 425.271 248.995 449.5 338.5 449.5Z" stroke="url(#paint1_linear_1_2)" stroke-width="15" stroke-miterlimit="1"/>
</g>
<defs>
<filter id="filter0_d_1_2" x="0" y="0" width="677" height="465" filterUnits="userSpaceOnUse" color-interpolation-filters="sRGB">
<feFlood flood-opacity="0" result="BackgroundImageFix"/>
<feColorMatrix in="SourceAlpha" type="matrix" values="0 0 0 0 0 0 0 0 0 0 0 0 0 0 0 0 0 0 127 0" result="hardAlpha"/>
<feOffset dy="4"/>
<feGaussianBlur stdDeviation="2"/>
<feComposite in2="hardAlpha" operator="out"/>
<feColorMatrix type="matrix" values="0 0 0 0 0 0 0 0 0 0 0 0 0 0 0 0 0 0 0.25 0"/>
<feBlend mode="normal" in2="BackgroundImageFix" result="effect1_dropShadow_1_2"/>
<feBlend mode="normal" in="SourceGraphic" in2="effect1_dropShadow_1_2" result="shape"/>
</filter>
<linearGradient id="paint0_linear_1_2" x1="338.5" y1="453.206" x2="338.5" y2="-240.374" gradientUnits="userSpaceOnUse">
<stop stop-color="#3EB651"/>
<stop offset="1" stop-color="#2C853A"/>
</linearGradient>
<linearGradient id="paint1_linear_1_2" x1="338.5" y1="-112.982" x2="338.5" y2="749.275" gradientUnits="userSpaceOnUse">
<stop stop-color="#454545"/>
<stop offset="0.145" stop-color="#454545"/>
<stop offset="0.9999" stop-color="#1F1F1F"/>
<stop offset="1" stop-color="#1E1E1E"/>
</linearGradient>
</defs>
</svg>
